<svg xmlns="http://www.w3.org/2000/svg" width="1006.32" height="563" viewBox="0 0 754.74 422.25">
    <defs>
        <clipPath id="a">
            <path d="M69 364h50v58.25H69Zm0 0" />
        </clipPath>
        <clipPath id="b">
            <path d="M719 364h35.74v51H719Zm0 0" />
        </clipPath>
        <clipPath id="c">
            <path d="M750 180h4.74v19H750Zm0 0" />
        </clipPath>
    </defs>
    <path d="M157.06 143.07a22.51 22.51 0 1 1-45.02 0 22.51 22.51 0 0 1 45.02 0" fill="#5e9735" />
    <path d="M3.27 303.1V142.39c0-6.83-.51-11.9-2.03-17.97l27.85-4.05c1.51 6.83 2.27 11.9 2.27 22.02v35.69c0 4.05-.25 7.34-.76 11.64 8.1-9.1 15.7-15.44 32.15-15.44 18.98 0 35.94 12.66 35.94 40v88.84h-28.1v-87.07c0-13.41-5.82-18.23-16.7-18.23-11.9 0-17.72 4.81-22.53 10.89v94.4" />
    <path d="M3.27 303.1V142.39c0-6.83-.51-11.9-2.03-17.97l27.85-4.05c1.51 6.83 2.27 11.9 2.27 22.02v35.69c0 4.05-.25 7.34-.76 11.64 8.1-9.1 15.7-15.44 32.15-15.44 18.98 0 35.94 12.66 35.94 40v88.84h-28.1v-87.07c0-13.41-5.82-18.23-16.7-18.23-11.9 0-17.72 4.81-22.53 10.89v94.4Zm0 0"
          fill="none" stroke-width="2" stroke="#000" stroke-miterlimit="10" />
    <path d="M122.34 303.1V177.32l28.1-1.52v127.32Zm0 0" stroke-width="2" stroke="#000" stroke-miterlimit="10" />
    <path d="M175.33 303.1v-98.45c0-8.6-1.01-15.95-3.03-21.77l22.01-8.6c2.8 6.32 4.3 11.9 5.57 18.98 5.82-11.14 14.43-18.99 30.37-18.99 7.34 0 12.4 1.52 17.72 5.57l-8.1 27.34c-3.54-3.54-9.36-6.07-16.45-6.07-9.62 0-20 4.3-20 13.16v88.84" />
    <path d="M175.33 303.1v-98.45c0-8.6-1.01-15.95-3.03-21.77l22.01-8.6c2.8 6.32 4.3 11.9 5.57 18.98 5.82-11.14 14.43-18.99 30.37-18.99 7.34 0 12.4 1.52 17.72 5.57l-8.1 27.34c-3.54-3.54-9.36-6.07-16.45-6.07-9.62 0-20 4.3-20 13.16v88.84Zm0 0"
          fill="none" stroke-width="2" stroke="#000" stroke-miterlimit="10" />
    <path d="M306.55 287.54c15.95 0 24.8-10.63 24.8-41.77 0-32.14-8.85-44.04-24.8-44.04-15.94 0-24.3 11.9-24.3 44.04 0 31.14 8.36 41.77 24.3 41.77m0-108.34c35.95 0 53.16 23.04 53.16 66.57 0 43.03-18.73 64.3-53.16 64.3-34.42 0-52.65-21.27-52.65-64.3 0-43.53 16.7-66.57 52.65-66.57" />
    <path d="M306.55 287.54c15.95 0 24.8-10.63 24.8-41.77 0-32.14-8.85-44.04-24.8-44.04-15.94 0-24.3 11.9-24.3 44.04 0 31.14 8.36 41.77 24.3 41.77Zm0-108.34c35.95 0 53.16 23.04 53.16 66.57 0 43.03-18.73 64.3-53.16 64.3-34.42 0-52.65-21.27-52.65-64.3 0-43.53 16.7-66.57 52.65-66.57Zm0 0"
          fill="none" stroke-width="2" stroke="#000" stroke-miterlimit="10" />
    <path d="M27.96 384.36H7.9v17.43h22.36v5.23H1.24V358.7H29.1v5.23H7.91v15.27h20.05" fill="#5e9735" />
    <path d="M27.96 384.36H7.9v17.43h22.36v5.23H1.24V358.7H29.1v5.23H7.91v15.27h20.05Zm0 0" fill="none"
          stroke-width=".5" stroke="#5e9735" stroke-miterlimit="10" />
    <path d="M62.48 386.45a9.77 9.77 0 0 0-10.03-9.96c-6.96-.01-11.1 5.72-11.1 13.4 0 7.02 3.68 12.82 10.95 12.82a10 10 0 0 0 10.18-10.25Zm6.74-30.33v41.93c0 3.1.08 6.6.31 8.97h-6.05l-.3-6.02h-.16c-2.07 3.87-6.59 6.8-12.63 6.8-8.96 0-15.85-7.09-15.85-17.63-.08-11.54 7.58-18.64 16.61-18.64 5.67 0 9.5 2.5 11.18 5.3h.15v-20.71"
          fill="#5e9735" />
    <path d="M62.48 386.45a9.77 9.77 0 0 0-10.03-9.96c-6.96-.01-11.1 5.72-11.1 13.4 0 7.02 3.68 12.82 10.95 12.82a10 10 0 0 0 10.18-10.25Zm6.74-30.33v41.93c0 3.1.08 6.6.31 8.97h-6.05l-.3-6.02h-.16c-2.07 3.87-6.59 6.8-12.63 6.8-8.96 0-15.85-7.09-15.85-17.63-.08-11.54 7.58-18.64 16.61-18.64 5.67 0 9.5 2.5 11.18 5.3h.15v-20.71Zm0 0"
          fill="none" stroke-width=".5" stroke="#5e9735" stroke-miterlimit="10" />
    <path d="M104.2 386.01c0-1.07-.07-2-.38-2.87a9.62 9.62 0 0 0-9.42-6.66c-6.43 0-11.03 5.09-11.03 13.12 0 6.8 3.68 12.47 10.96 12.47a9.81 9.81 0 0 0 9.34-6.45c.38-1.08.53-2.3.53-3.37Zm6.97-13.69c-.15 2.51-.3 5.3-.3 9.54V402c0 7.96-1.69 12.83-5.28 15.84-3.6 3.16-8.81 4.16-13.48 4.16-4.45 0-9.35-1-12.33-2.87l1.68-4.8a21.98 21.98 0 0 0 10.88 2.72c6.89 0 11.94-3.36 11.94-12.11v-3.87h-.15c-2.07 3.22-6.05 5.8-11.8 5.8-9.18 0-15.77-7.3-15.77-16.91 0-11.76 8.2-18.43 16.7-18.43 6.42 0 9.95 3.16 11.56 6.02h.15l.3-5.23"
          fill="#5e9735" />
    <g clip-path="url(#a)">
        <path d="M104.2 386.01c0-1.07-.07-2-.38-2.87a9.62 9.62 0 0 0-9.42-6.66c-6.43 0-11.03 5.09-11.03 13.12 0 6.8 3.68 12.47 10.96 12.47a9.81 9.81 0 0 0 9.34-6.45c.38-1.08.53-2.3.53-3.37Zm6.97-13.69c-.15 2.51-.3 5.3-.3 9.54V402c0 7.96-1.69 12.83-5.28 15.84-3.6 3.16-8.81 4.16-13.48 4.16-4.45 0-9.35-1-12.33-2.87l1.68-4.8a21.98 21.98 0 0 0 10.88 2.72c6.89 0 11.94-3.36 11.94-12.11v-3.87h-.15c-2.07 3.22-6.05 5.8-11.8 5.8-9.18 0-15.77-7.3-15.77-16.91 0-11.76 8.2-18.43 16.7-18.43 6.42 0 9.95 3.16 11.56 6.02h.15l.3-5.23Zm0 0"
              fill="none" stroke-width=".5" stroke="#5e9735" stroke-miterlimit="10" />
    </g>
    <path d="M144.4 386.3c.06-4.01-1.77-10.25-9.35-10.25-6.82 0-9.8 5.88-10.34 10.25Zm-19.77 4.52c.16 8.53 5.98 12.04 12.71 12.04 4.83 0 7.74-.79 10.27-1.8l1.14 4.52c-2.37 1-6.43 2.15-12.32 2.15-11.41 0-18.23-7.02-18.23-17.49 0-10.47 6.59-18.7 17.38-18.7 12.1 0 15.32 9.96 15.32 16.34 0 1.29-.15 2.29-.23 2.94"
          fill="#5e9735" />
    <path d="M144.4 386.3c.06-4.01-1.77-10.25-9.35-10.25-6.82 0-9.8 5.88-10.34 10.25Zm-19.77 4.52c.16 8.53 5.98 12.04 12.71 12.04 4.83 0 7.74-.79 10.27-1.8l1.14 4.52c-2.37 1-6.43 2.15-12.32 2.15-11.41 0-18.23-7.02-18.23-17.49 0-10.47 6.59-18.7 17.38-18.7 12.1 0 15.32 9.96 15.32 16.34 0 1.29-.15 2.29-.23 2.94Zm0 0"
          fill="none" stroke-width=".5" stroke="#5e9735" stroke-miterlimit="10" />
    <path d="M216.89 385.8c-.39-6.74-.85-14.84-.77-20.86h-.23a277.4 277.4 0 0 1-6.5 18.35l-9.12 23.44h-5.05l-8.35-23.01a207.56 207.56 0 0 1-5.97-18.78h-.16a595.9 595.9 0 0 1-1 21.36l-1.37 20.72h-6.35l3.6-48.32h8.5l8.8 23.37c2.14 5.95 3.9 11.25 5.2 16.27h.24c1.3-4.87 3.13-10.18 5.43-16.27l9.19-23.37h8.5l3.22 48.32h-6.51"
          fill="#5e9735" />
    <path d="M216.89 385.8c-.39-6.74-.85-14.84-.77-20.86h-.23a277.39 277.39 0 0 1-6.5 18.35l-9.12 23.44h-5.05l-8.35-23.01a207.56 207.56 0 0 1-5.97-18.78h-.16c-.15 6.02-.53 14.12-1 21.36l-1.37 20.72h-6.35l3.6-48.32h8.5l8.8 23.37c2.14 5.95 3.9 11.25 5.2 16.27h.24c1.3-4.87 3.13-10.18 5.43-16.27l9.19-23.37h8.5l3.22 48.32h-6.51Zm0 0"
          fill="none" stroke-width=".5" stroke="#5e9735" stroke-miterlimit="10" />
    <path d="M234.48 372.32h6.73v34.7h-6.73Zm7.5-9.75c.08 2.15-1.6 3.87-4.28 3.87-2.38 0-4.06-1.72-4.06-3.87 0-2.22 1.76-3.94 4.2-3.94 2.54 0 4.14 1.72 4.14 3.94"
          fill="#5e9735" />
    <path d="M234.48 372.32h6.73v34.7h-6.73Zm7.5-9.75c.08 2.15-1.6 3.87-4.28 3.87-2.38 0-4.06-1.72-4.06-3.87 0-2.22 1.76-3.94 4.2-3.94 2.54 0 4.14 1.72 4.14 3.94Zm0 0"
          fill="none" stroke-width=".5" stroke="#5e9735" stroke-miterlimit="10" />
    <path d="M277.66 405.73c-1.76.86-5.67 2-10.64 2-11.18 0-18.46-7.1-18.46-17.7 0-10.69 7.81-18.43 19.91-18.43 3.98 0 7.5.94 9.34 1.8l-1.53 4.87c-1.6-.86-4.13-1.65-7.8-1.65-8.5 0-13.1 5.88-13.1 13.12 0 8.03 5.51 12.97 12.86 12.97 3.83 0 6.36-.93 8.27-1.71"
          fill="#5e9735" />
    <path d="M277.66 405.73c-1.76.86-5.67 2-10.64 2-11.18 0-18.46-7.1-18.46-17.7 0-10.69 7.81-18.43 19.91-18.43 3.98 0 7.5.94 9.34 1.8l-1.53 4.87c-1.6-.86-4.13-1.65-7.8-1.65-8.5 0-13.1 5.88-13.1 13.12 0 8.03 5.51 12.97 12.86 12.97 3.83 0 6.36-.93 8.27-1.71Zm0 0"
          fill="none" stroke-width=".5" stroke="#5e9735" stroke-miterlimit="10" />
    <path d="M284.39 383.14c0-4.08-.08-7.6-.31-10.82h5.9l.23 6.81h.3c1.69-4.66 5.75-7.6 10.26-7.6.77 0 1.3.07 1.92.22v5.95c-.7-.15-1.38-.22-2.3-.22-4.75 0-8.12 3.37-9.03 8.1-.16.87-.31 1.87-.31 2.94v18.5h-6.66"
          fill="#5e9735" />
    <path d="M284.39 383.14c0-4.08-.08-7.6-.31-10.82h5.9l.23 6.81h.3c1.69-4.66 5.75-7.6 10.26-7.6.77 0 1.3.07 1.92.22v5.95c-.7-.15-1.38-.22-2.3-.22-4.75 0-8.12 3.37-9.03 8.1-.16.87-.31 1.87-.31 2.94v18.5h-6.66Zm0 0"
          fill="none" stroke-width=".5" stroke="#5e9735" stroke-miterlimit="10" />
    <path d="M311.64 389.74c0 7.6 4.67 13.33 11.26 13.33 6.43 0 11.25-5.66 11.25-13.47 0-5.88-3.14-13.33-11.1-13.33-7.96 0-11.4 6.87-11.4 13.47m29.4-.36c0 12.83-9.5 18.42-18.46 18.42-10.03 0-17.76-6.87-17.76-17.85 0-11.61 8.11-18.42 18.37-18.42 10.64 0 17.85 7.24 17.85 17.85"
          fill="#5e9735" />
    <path d="M311.64 389.74c0 7.6 4.67 13.33 11.26 13.33 6.43 0 11.25-5.66 11.25-13.47 0-5.88-3.14-13.33-11.1-13.33-7.96 0-11.4 6.87-11.4 13.47Zm29.4-.36c0 12.83-9.49 18.42-18.45 18.42-10.03 0-17.76-6.87-17.76-17.85 0-11.61 8.11-18.42 18.37-18.42 10.64 0 17.85 7.24 17.85 17.85Zm0 0"
          fill="none" stroke-width=".5" stroke="#5e9735" stroke-miterlimit="10" />
    <path d="M370.35 402.07c1.69.29 4.14.36 6.74.36 14.25 0 21.98-7.46 21.98-20.5.07-11.4-6.82-18.64-20.9-18.64-3.45 0-6.06.28-7.82.64Zm-6.66-42.72c4.06-.58 8.88-1.01 14.17-1.01 9.57 0 16.38 2.08 20.9 6.02 4.6 3.95 7.28 9.54 7.28 17.35 0 7.89-2.6 14.34-7.43 18.78-4.83 4.52-12.79 6.96-22.82 6.96-4.75 0-8.73-.22-12.1-.58"
          fill="#5e9735" />
    <path d="M370.35 402.07c1.69.29 4.14.36 6.74.36 14.25 0 21.98-7.46 21.98-20.5.07-11.4-6.82-18.64-20.9-18.64-3.45 0-6.06.28-7.82.64Zm-6.66-42.72c4.06-.58 8.88-1.01 14.17-1.01 9.57 0 16.38 2.08 20.9 6.02 4.6 3.95 7.28 9.54 7.28 17.35 0 7.89-2.6 14.34-7.43 18.78-4.83 4.52-12.79 6.96-22.82 6.96-4.75 0-8.73-.22-12.1-.58Zm0 0"
          fill="none" stroke-width=".5" stroke="#5e9735" stroke-miterlimit="10" />
    <path d="M432.82 389.31c-7.35-.14-15.7 1.08-15.7 7.81 0 4.1 2.91 6.03 6.36 6.03 4.82 0 7.89-2.87 8.96-5.81a6.2 6.2 0 0 0 .38-2Zm1 17.71-.54-4.38h-.23c-2.07 2.73-6.05 5.16-11.33 5.16-7.5 0-11.34-4.94-11.34-9.96 0-8.39 7.97-12.97 22.29-12.9v-.72c0-2.86-.85-8.03-8.43-8.03-3.44 0-7.04 1-9.64 2.58l-1.53-4.15c3.06-1.87 7.5-3.09 12.17-3.09 11.33 0 14.09 7.24 14.09 14.2v12.97c0 3.01.15 5.95.61 8.32"
          fill="#5e9735" />
    <path d="M432.82 389.31c-7.35-.14-15.7 1.08-15.7 7.81 0 4.1 2.91 6.03 6.36 6.03 4.82 0 7.89-2.87 8.96-5.81a6.2 6.2 0 0 0 .38-2Zm1 17.71-.54-4.38h-.23c-2.07 2.73-6.05 5.16-11.33 5.16-7.5 0-11.34-4.94-11.34-9.96 0-8.39 7.97-12.97 22.29-12.9v-.72c0-2.86-.85-8.03-8.43-8.03-3.44 0-7.04 1-9.64 2.58l-1.53-4.15c3.06-1.87 7.5-3.09 12.17-3.09 11.33 0 14.09 7.24 14.09 14.2v12.97c0 3.01.15 5.95.61 8.32Zm0 0"
          fill="none" stroke-width=".5" stroke="#5e9735" stroke-miterlimit="10" />
    <path d="M456.86 362.36v9.96h9.64v4.8h-9.64v18.72c0 4.3 1.3 6.73 5.05 6.73 1.75 0 3.06-.21 3.9-.43l.3 4.73c-1.3.5-3.36.86-5.97.86-3.14 0-5.66-.93-7.27-2.65-1.92-1.86-2.6-4.94-2.6-9.03v-18.93h-5.75v-4.8h5.75V364"
          fill="#5e9735" />
    <path d="M456.86 362.36v9.96h9.64v4.8h-9.64v18.72c0 4.3 1.3 6.73 5.05 6.73 1.75 0 3.06-.21 3.9-.43l.3 4.73c-1.3.5-3.36.86-5.97.86-3.14 0-5.66-.93-7.27-2.65-1.92-1.86-2.6-4.94-2.6-9.03v-18.93h-5.75v-4.8h5.75V364Zm0 0"
          fill="none" stroke-width=".5" stroke="#5e9735" stroke-miterlimit="10" />
    <path d="M492.45 389.31c-7.35-.14-15.7 1.08-15.7 7.81 0 4.1 2.91 6.03 6.36 6.03 4.83 0 7.89-2.87 8.96-5.81.23-.64.38-1.36.38-2Zm1 17.71-.54-4.38h-.23c-2.07 2.73-6.05 5.16-11.33 5.16-7.5 0-11.33-4.94-11.33-9.96 0-8.39 7.96-12.97 22.28-12.9v-.72c0-2.86-.84-8.03-8.42-8.03-3.45 0-7.05 1-9.65 2.58l-1.53-4.15c3.06-1.87 7.5-3.09 12.17-3.09 11.33 0 14.1 7.24 14.1 14.2v12.97c0 3.01.14 5.95.6 8.32"
          fill="#5e9735" />
    <path d="M492.45 389.31c-7.35-.14-15.7 1.08-15.7 7.81 0 4.1 2.91 6.03 6.36 6.03 4.83 0 7.89-2.87 8.96-5.81.23-.64.38-1.36.38-2Zm1 17.71-.54-4.38h-.23c-2.07 2.73-6.05 5.16-11.33 5.16-7.5 0-11.33-4.94-11.33-9.96 0-8.39 7.96-12.97 22.28-12.9v-.72c0-2.86-.84-8.03-8.42-8.03-3.45 0-7.05 1-9.65 2.58l-1.53-4.15c3.06-1.87 7.5-3.09 12.17-3.09 11.33 0 14.1 7.24 14.1 14.2v12.97c0 3.01.14 5.95.6 8.32Zm0 0"
          fill="none" stroke-width=".5" stroke="#5e9735" stroke-miterlimit="10" />
    <path d="M560.05 405.44c-2.45 1.15-7.35 2.3-13.63 2.3-14.55 0-25.5-8.6-25.5-24.45 0-15.13 10.95-25.38 26.96-25.38 6.42 0 10.48 1.3 12.25 2.15l-1.61 5.1a25.46 25.46 0 0 0-10.41-2.02c-12.1 0-20.15 7.24-20.15 19.93 0 11.83 7.28 19.43 19.84 19.43 4.06 0 8.2-.79 10.87-2"
          fill="#5e9735" />
    <path d="M560.05 405.44c-2.45 1.15-7.35 2.3-13.63 2.3-14.55 0-25.5-8.6-25.5-24.45 0-15.13 10.95-25.38 26.96-25.38 6.42 0 10.48 1.3 12.25 2.15l-1.61 5.1a25.46 25.46 0 0 0-10.41-2.02c-12.1 0-20.15 7.24-20.15 19.93 0 11.83 7.28 19.43 19.84 19.43 4.06 0 8.2-.79 10.87-2Zm0 0"
          fill="none" stroke-width=".5" stroke="#5e9735" stroke-miterlimit="10" />
    <path d="M589.67 386.3c.08-4.01-1.76-10.25-9.34-10.25-6.82 0-9.8 5.88-10.34 10.25Zm-19.76 4.52c.16 8.53 5.98 12.04 12.71 12.04 4.83 0 7.74-.79 10.26-1.8l1.15 4.52c-2.37 1-6.43 2.15-12.33 2.15-11.4 0-18.22-7.02-18.22-17.49 0-10.47 6.59-18.7 17.38-18.7 12.1 0 15.32 9.96 15.32 16.34 0 1.29-.16 2.29-.23 2.94"
          fill="#5e9735" />
    <path d="M589.67 386.3c.08-4.01-1.76-10.25-9.34-10.25-6.82 0-9.8 5.88-10.34 10.25Zm-19.76 4.52c.16 8.53 5.98 12.04 12.71 12.04 4.83 0 7.74-.79 10.26-1.8l1.15 4.52c-2.37 1-6.43 2.15-12.33 2.15-11.4 0-18.22-7.02-18.22-17.49 0-10.47 6.59-18.7 17.38-18.7 12.1 0 15.32 9.96 15.32 16.34 0 1.29-.16 2.29-.23 2.94Zm0 0"
          fill="none" stroke-width=".5" stroke="#5e9735" stroke-miterlimit="10" />
    <path d="M603.36 381.71c0-3.58-.07-6.52-.3-9.39h5.97l.38 5.73h.16c1.83-3.3 6.12-6.52 12.25-6.52 5.13 0 13.09 2.87 13.09 14.77v20.72h-6.74v-20c0-5.6-2.22-10.25-8.57-10.25a9.5 9.5 0 0 0-9.04 6.44c-.3.8-.46 1.87-.46 2.95v20.86h-6.74"
          fill="#5e9735" />
    <path d="M603.36 381.71c0-3.58-.07-6.52-.3-9.39h5.97l.38 5.73h.16c1.83-3.3 6.12-6.52 12.25-6.52 5.13 0 13.09 2.87 13.09 14.77v20.72h-6.74v-20c0-5.6-2.22-10.25-8.57-10.25a9.5 9.5 0 0 0-9.04 6.44c-.3.8-.46 1.87-.46 2.95v20.86h-6.74Zm0 0"
          fill="none" stroke-width=".5" stroke="#5e9735" stroke-miterlimit="10" />
    <path d="M652.5 362.36v9.96h9.66v4.8h-9.65v18.72c0 4.3 1.3 6.73 5.05 6.73 1.76 0 3.07-.21 3.9-.43l.31 4.73c-1.3.5-3.37.86-5.97.86-3.14 0-5.66-.93-7.27-2.65-1.92-1.86-2.6-4.94-2.6-9.03v-18.93h-5.75v-4.8h5.74V364"
          fill="#5e9735" />
    <path d="M652.5 362.36v9.96h9.66v4.8h-9.65v18.72c0 4.3 1.3 6.73 5.05 6.73 1.76 0 3.07-.21 3.9-.43l.31 4.73c-1.3.5-3.37.86-5.97.86-3.14 0-5.66-.93-7.27-2.65-1.92-1.86-2.6-4.94-2.6-9.03v-18.93h-5.75v-4.8h5.74V364Zm0 0"
          fill="none" stroke-width=".5" stroke="#5e9735" stroke-miterlimit="10" />
    <path d="M691.63 386.3c.08-4.01-1.76-10.25-9.34-10.25-6.81 0-9.8 5.88-10.34 10.25Zm-19.76 4.52c.16 8.53 5.98 12.04 12.72 12.04 4.82 0 7.73-.79 10.26-1.8l1.15 4.52c-2.38 1-6.44 2.15-12.34 2.15-11.4 0-18.21-7.02-18.21-17.49 0-10.47 6.58-18.7 17.37-18.7 12.1 0 15.32 9.96 15.32 16.34 0 1.29-.15 2.29-.23 2.94"
          fill="#5e9735" />
    <path d="M691.63 386.3c.08-4.01-1.76-10.25-9.34-10.25-6.81 0-9.8 5.88-10.34 10.25Zm-19.76 4.52c.16 8.53 5.98 12.04 12.72 12.04 4.82 0 7.73-.79 10.26-1.8l1.15 4.52c-2.38 1-6.44 2.15-12.34 2.15-11.4 0-18.21-7.02-18.21-17.49 0-10.47 6.58-18.7 17.37-18.7 12.1 0 15.32 9.96 15.32 16.34 0 1.29-.15 2.29-.23 2.94Zm0 0"
          fill="none" stroke-width=".5" stroke="#5e9735" stroke-miterlimit="10" />
    <path d="M705.33 383.14c0-4.08-.08-7.6-.31-10.82h5.9l.22 6.81h.3c1.7-4.66 5.75-7.6 10.27-7.6.77 0 1.3.07 1.91.22v5.95c-.69-.15-1.37-.22-2.3-.22-4.74 0-8.1 3.37-9.03 8.1-.15.87-.3 1.87-.3 2.94v18.5h-6.66"
          fill="#5e9735" />
    <path d="M705.33 383.14c0-4.08-.08-7.6-.31-10.82h5.9l.22 6.81h.3c1.7-4.66 5.75-7.6 10.27-7.6.77 0 1.3.07 1.91.22v5.95c-.69-.15-1.37-.22-2.3-.22-4.74 0-8.1 3.37-9.03 8.1-.15.87-.3 1.87-.3 2.94v18.5h-6.66Zm0 0"
          fill="none" stroke-width=".5" stroke="#5e9735" stroke-miterlimit="10" />
    <path d="M728.29 400.57c2 1.22 5.51 2.5 8.88 2.5 4.9 0 7.2-2.29 7.2-5.16 0-3-1.92-4.66-6.9-6.37-6.66-2.23-9.8-5.67-9.8-9.83 0-5.59 4.83-10.18 12.8-10.18 3.74 0 7.04 1 9.1 2.15l-1.68 4.59c-1.45-.86-4.14-2-7.58-2-3.98 0-6.2 2.14-6.2 4.72 0 2.87 2.22 4.16 7.04 5.88 6.43 2.3 9.73 5.31 9.73 10.47 0 6.1-5.06 10.4-13.86 10.4-4.06 0-7.81-.94-10.41-2.37"
          fill="#5e9735" />
    <g clip-path="url(#b)">
        <path d="M728.29 400.57c2 1.22 5.51 2.5 8.88 2.5 4.9 0 7.2-2.29 7.2-5.16 0-3-1.92-4.66-6.9-6.37-6.66-2.23-9.8-5.67-9.8-9.83 0-5.59 4.83-10.18 12.8-10.18 3.74 0 7.04 1 9.1 2.15l-1.68 4.59c-1.45-.86-4.14-2-7.58-2-3.98 0-6.2 2.14-6.2 4.72 0 2.87 2.22 4.16 7.04 5.88 6.43 2.3 9.73 5.31 9.73 10.47 0 6.1-5.06 10.4-13.86 10.4-4.06 0-7.81-.94-10.41-2.37Zm0 0"
              fill="none" stroke-width=".5" stroke="#5e9735" stroke-miterlimit="10" />
    </g>
    <path d="M596.13 187.3a14.72 14.72 0 1 1-29.44 0 14.72 14.72 0 0 1 29.44 0m36.44-16a14.71 14.71 0 1 1-29.43 0 14.71 14.71 0 0 1 29.43 0m4.75-36.14a14.72 14.72 0 1 1-29.44-.01 14.72 14.72 0 0 1 29.44 0m-31.17-25.85a14.72 14.72 0 1 1-29.43 0 14.72 14.72 0 0 1 29.43 0m-35.56 10.93a14.72 14.72 0 1 1-29.44 0 14.72 14.72 0 0 1 29.44 0"
          fill="#bec6bd" />
    <path d="M537.23 138.54a14.72 14.72 0 1 1-29.43 0 14.72 14.72 0 0 1 29.43 0" fill="#c3c9c2" />
    <path d="M540.78 172.52a14.71 14.71 0 1 1-29.42 0 14.71 14.71 0 0 1 29.42 0m-32.98 12.9a12.9 12.9 0 1 1-25.81 0 12.9 12.9 0 0 1 25.8 0m-29.63-4.95c0 7.78-5.77 14.08-12.9 14.08-7.13 0-12.9-6.3-12.9-14.08 0-7.77 5.77-14.08 12.9-14.08 7.13 0 12.9 6.3 12.9 14.08"
          fill="#bfc6be" />
    <path d="M490.5 213.87c0 7.78-5.93 14.08-13.25 14.08-7.3 0-13.23-6.3-13.23-14.08 0-7.77 5.92-14.08 13.23-14.08 7.32 0 13.24 6.3 13.24 14.08"
          fill="#a9afaa" />
    <path d="M462.02 206.05c0 7.64-6.72 13.3-14.32 12.72-6.95-.54-12.16-6.2-12.16-12.68 0-6.48 5.21-12.15 12.16-12.7 7.6-.62 14.32 5.03 14.32 12.66"
          fill="#a8afaa" />
    <path d="M562.12 200.37a14.72 14.72 0 1 1-29.44 0 14.72 14.72 0 0 1 29.44 0" fill="#5c992d" />
    <path d="M587.2 231.18a14.72 14.72 0 1 1-29.43 0 14.72 14.72 0 0 1 29.43 0" fill="#a9afaa" />
    <path d="M612.09 251.92a14.72 14.72 0 1 1-29.43 0 14.72 14.72 0 0 1 29.43 0" fill="#8c928e" />
    <path d="M658.02 234.74a14.71 14.71 0 1 1-29.43 0 14.71 14.71 0 0 1 29.43 0m5.23-37.64a14.72 14.72 0 1 1-29.43 0 14.72 14.72 0 0 1 29.43 0"
          fill="#8e928e" />
    <path d="M666.75 160.05a14.72 14.72 0 1 1-29.44 0 14.72 14.72 0 0 1 29.44 0" fill="#c3c9c2" />
    <path d="M694 183.61a13.5 13.5 0 1 1-26.99 0 13.5 13.5 0 0 1 27 0m6.22-32.52a13.5 13.5 0 1 1-27-.01 13.5 13.5 0 0 1 27 0m-1.48-31.31a13.5 13.5 0 1 1-27 0 13.5 13.5 0 0 1 27 0m-22-27.3a13.5 13.5 0 1 1-27 0 13.5 13.5 0 0 1 27 0"
          fill="#8e928e" />
    <path d="M642.45 101.61a15.1 15.1 0 1 1-30.21 0 15.1 15.1 0 0 1 30.21 0" fill="#c3c9c2" />
    <path d="M646.96 69.59c0 7.28-6.43 13.2-14.36 13.2s-14.36-5.92-14.36-13.2c0-7.3 6.43-13.2 14.36-13.2s14.36 5.9 14.36 13.2"
          fill="#5c992d" />
    <path d="M621.16 45.9c0 6.46-6.43 11.7-14.36 11.7s-14.36-5.24-14.36-11.7c0-6.45 6.43-11.68 14.36-11.68s14.36 5.23 14.36 11.69"
          fill="#c3c9c2" />
    <path d="M622.93 26.07c-.5 4.36-6.13 7.3-12.59 6.57-6.45-.74-11.28-4.87-10.78-9.23s6.13-7.3 12.58-6.57c6.46.74 11.29 4.87 10.8 9.23"
          fill="#929292" />
    <path d="M675.47 73.68c-3.08 3.44-10.2 2.1-15.93-3-5.72-5.12-7.86-12.05-4.79-15.5 3.08-3.44 10.2-2.1 15.93 3.01 5.72 5.1 7.86 12.04 4.79 15.49"
          fill="#8e928e" />
    <path d="M712.24 145.1c-4.24.98-8.94-3.68-10.49-10.4-1.54-6.71.64-12.95 4.89-13.93 4.24-.97 8.93 3.68 10.48 10.4 1.54 6.72-.64 12.95-4.88 13.93m16.3 17.17c-4.6.5-8.86-4.07-9.5-10.18-.65-6.1 2.56-11.45 7.16-11.94 4.6-.48 8.85 4.08 9.5 10.19.64 6.1-2.56 11.45-7.16 11.93"
          fill="#6c6c6c" />
    <path d="M710.31 184.47c-5.56 0-10.06-5.7-10.06-12.75 0-7.04 4.5-12.75 10.06-12.75 5.56 0 10.07 5.7 10.07 12.75 0 7.04-4.5 12.75-10.07 12.75"
          fill="#5c992d" />
    <path d="M705.9 217.43c-6.05 0-10.95-6.04-10.95-13.48s4.9-13.47 10.94-13.47c6.04 0 10.93 6.03 10.93 13.47s-4.89 13.48-10.93 13.48"
          fill="#6e716d" />
    <path d="M700.7 103.22c-3.13 2.42-9.4-.42-13.98-6.36-4.58-5.93-5.74-12.71-2.6-15.13 3.14-2.43 9.4.41 13.98 6.35 4.58 5.94 5.75 12.72 2.6 15.14M708.86 72c-1.99 1.53-6.5-1-10.08-5.64s-4.88-9.64-2.9-11.17c1.98-1.53 6.5 1 10.07 5.64 3.59 4.64 4.89 9.64 2.9 11.17"
          fill="#6c6c6c" />
    <path d="M715.62 98.52c-2.12 1.32-6.6-2.02-10.01-7.47-3.42-5.46-4.47-10.96-2.34-12.28 2.12-1.33 6.6 2.02 10.01 7.47 3.42 5.46 4.46 10.95 2.34 12.28"
          fill="#8e928e" />
    <path d="M728.54 100.41c-1.93 1.02-5.63-2.24-8.27-7.27-2.64-5.03-3.22-9.92-1.3-10.94 1.94-1 5.64 2.25 8.28 7.28 2.64 5.02 3.21 9.92 1.29 10.93"
          fill="#5c992d" />
    <path d="M738.74 137.7c-2.12.49-5.06-4.39-6.55-10.9-1.5-6.5-1-12.17 1.13-12.66 2.12-.48 5.05 4.4 6.55 10.9s1 12.17-1.13 12.66m5.08 41.99c-2.6 0-4.7-5.42-4.7-12.09s2.1-12.08 4.7-12.08c2.59 0 4.69 5.4 4.69 12.08 0 6.67-2.1 12.09-4.7 12.09"
          fill="#6c6c6c" />
    <path d="M742.66 221.18c-2.58-.25-4.15-5.84-3.51-12.48.64-6.65 3.24-11.83 5.82-11.58 2.58.24 4.15 5.83 3.51 12.48-.63 6.64-3.24 11.83-5.82 11.58m-13.78 38.76c-2.57-1.13-2.48-7 .2-13.12 2.69-6.1 6.94-10.15 9.52-9.02 2.57 1.13 2.48 7-.2 13.11-2.69 6.11-6.95 10.16-9.52 9.03"
          fill="#5c992d" />
    <path d="M716.9 291.45c-2.32-1.57-1.19-7.33 2.55-12.87 3.73-5.53 8.64-8.74 10.97-7.17 2.33 1.57 1.2 7.33-2.54 12.86-3.73 5.53-8.65 8.75-10.97 7.18"
          fill="#6c6c6c" />
    <path d="M707.14 277.85c-3.8-2.56-3.84-9.12-.1-14.65 3.73-5.54 9.83-7.95 13.62-5.4 3.79 2.56 3.84 9.13.1 14.66-3.72 5.53-9.83 7.94-13.62 5.39m-25.74 6.95c-3.47-2.99-2.72-9.5 1.65-14.55 4.37-5.04 10.72-6.7 14.17-3.7 3.46 3 2.72 9.5-1.65 14.55-4.37 5.05-10.72 6.7-14.18 3.7"
          fill="#6e716d" />
    <path d="M662.56 314.55c-2.63-3.74.25-10.3 6.44-14.65 6.19-4.36 13.34-4.85 15.97-1.11 2.63 3.74-.25 10.3-6.44 14.66-6.19 4.35-13.34 4.85-15.97 1.1"
          fill="#5c992d" />
    <path d="M719.62 236.35c-3.42-1.98-3.5-8.27-.16-14.05 3.34-5.78 8.82-8.86 12.25-6.89 3.43 1.98 3.5 8.27.16 14.05-3.34 5.79-8.82 8.87-12.25 6.9"
          fill="#6e716d" />
    <path d="M749.45 154.54c-1.2.12-2.6-3.77-3.12-8.7s.03-9.04 1.23-9.16c1.2-.13 2.6 3.77 3.12 8.7s-.03 9.03-1.23 9.16"
          fill="#6c6c6c" />
    <g clip-path="url(#c)">
        <path d="M752.02 198.26c-1.2-.06-1.97-4.13-1.7-9.08.27-4.96 1.47-8.92 2.68-8.85 1.2.06 1.96 4.13 1.7 9.08-.28 4.95-1.47 8.92-2.68 8.85"
              fill="#6c6c6c" />
    </g>
    <path d="M743.23 238.28c-1.13-.44-.6-4.54 1.16-9.17 1.77-4.63 4.12-8.04 5.25-7.61 1.13.43.6 4.54-1.16 9.17-1.78 4.63-4.12 8.04-5.25 7.6"
          fill="#5c992d" />
    <path d="M698.5 315.9c-1.13-.97.6-4.8 3.84-8.55 3.25-3.75 6.8-6 7.92-5.02 1.13.98-.6 4.8-3.85 8.55-3.24 3.75-6.79 6-7.91 5.02"
          fill="#6c6c6c" />
    <path d="M653.2 44.25c-.62 3.6-7.08 5.49-14.44 4.23-7.36-1.25-12.83-5.18-12.21-8.78.6-3.59 7.07-5.48 14.43-4.22 7.36 1.25 12.82 5.18 12.21 8.77M536 103.96a13.5 13.5 0 1 1-26.98 0 13.5 13.5 0 0 1 26.99 0"
          fill="#5c992d" />
    <path d="M500.78 119.77a13.5 13.5 0 1 1-27 0 13.5 13.5 0 0 1 27 0m2.6-31.7c0 7.83-6.08 13.85-13.2 13.46-6.74-.36-11.94-6.38-11.94-13.46 0-7.07 5.2-13.09 11.94-13.45 7.12-.39 13.2 5.63 13.2 13.45"
          fill="#c3c9c2" />
    <path d="M470.88 141.6c0 8.02-5.28 14.52-11.79 14.52-6.5 0-11.78-6.5-11.78-14.51 0-8.02 5.28-14.51 11.78-14.51 6.51 0 11.79 6.5 11.79 14.5"
          fill="#bfc6be" />
    <path d="M416.85 122.54c-1.82 7.23-5.62 12.5-8.48 11.78-2.87-.72-3.72-7.16-1.9-14.4 1.82-7.22 5.61-12.5 8.48-11.78 2.86.72 3.71 7.17 1.9 14.4"
          fill="#929292" />
    <path d="M443.34 104.07c-2.7 7.2-8.35 11.74-12.62 10.14-4.27-1.6-5.53-8.74-2.83-15.94 2.7-7.2 8.35-11.74 12.62-10.14 4.26 1.6 5.53 8.74 2.83 15.94"
          fill="#5c992d" />
    <path d="M387.5 155.41c-1.16 6.77-3.19 12.07-4.53 11.84-1.34-.23-1.5-5.9-.34-12.66 1.16-6.77 3.18-12.07 4.53-11.85 1.34.23 1.49 5.9.33 12.67m12.34-40.25c-2.45 6.41-5.47 11.22-6.74 10.73-1.27-.48-.31-6.07 2.14-12.49 2.45-6.41 5.47-11.22 6.74-10.73 1.27.49.32 6.08-2.14 12.49"
          fill="#6c6c6c" />
    <path d="M526.52 210.61a13.5 13.5 0 1 1-26.99 0 13.5 13.5 0 0 1 27 0" fill="#c3c9c2" />
    <path d="M646.1 269.3a13.5 13.5 0 1 1-27 0 13.5 13.5 0 0 1 27 0" fill="#5c992d" />
    <path d="M604.54 287.75a13.5 13.5 0 1 1-26.99 0 13.5 13.5 0 0 1 26.99 0m-28.66-21.11a13.5 13.5 0 1 1-27 0 13.5 13.5 0 0 1 27 0m-35.86 5.56a13.5 13.5 0 1 1-26.99 0 13.5 13.5 0 0 1 27 0m-38.67 2.57c0 7.76-6.82 13.53-14.56 12.94-7.1-.55-12.43-6.32-12.43-12.94 0-6.62 5.33-12.4 12.43-12.94 7.74-.6 14.56 5.18 14.56 12.94m68.48 25.57c0 7.54-7.05 13.13-15.06 12.56-7.34-.53-12.85-6.13-12.85-12.56 0-6.42 5.5-12.02 12.85-12.55 8-.58 15.06 5.02 15.06 12.55"
          fill="#8c928e" />
    <path d="M599.4 318.7c0 7.53-7.06 13.13-15.07 12.55-7.34-.53-12.85-6.13-12.85-12.55 0-6.43 5.51-12.03 12.85-12.56 8.01-.57 15.07 5.03 15.07 12.56m-41.54 7.51c0 5.65-5.29 9.84-11.29 9.41-5.5-.4-9.63-4.6-9.63-9.4 0-4.83 4.13-9.02 9.63-9.42 6-.43 11.3 3.77 11.3 9.41m134.6-2.51c0 4.13-3.88 7.21-8.28 6.9-4.04-.3-7.07-3.38-7.07-6.9 0-3.54 3.03-6.62 7.07-6.9 4.4-.32 8.28 2.75 8.28 6.9"
          fill="#6c6c6c" />
    <path d="M477.68 242.93c.31 8.2-6.25 14.62-14 14.01-7.09-.56-12.16-6.9-11.86-13.93.3-6.72 5.48-12.37 12.03-12.88 7.1-.57 13.54 5 13.83 12.8"
          fill="#5c992d" />
    <path d="M666.43 290.12c-4.57 5.28-11.71 6.6-15.94 2.93-4.22-3.66-3.94-10.9.64-16.2 4.58-5.27 11.72-6.58 15.94-2.92 4.23 3.66 3.94 10.91-.64 16.2"
          fill="#6e716d" />
    <path d="M623.68 310.25c-5.43 4.4-12.69 4.44-16.2.1-3.53-4.35-1.98-11.44 3.46-15.84 5.43-4.4 12.68-4.44 16.2-.1 3.52 4.35 1.97 11.44-3.46 15.84"
          fill="#8c928e" />
    <path d="M709.19 250.34c-4.89 5.64-12.68 6.88-17.4 2.78-4.74-4.1-4.62-12 .26-17.63 4.89-5.63 12.68-6.87 17.41-2.77 4.74 4.1 4.61 12-.27 17.62"
          fill="#6e716d" />
    <path d="M572.49 84.71a13.5 13.5 0 1 1-27 0 13.5 13.5 0 0 1 27 0" fill="#bec6bd" />
    <path d="M585.98 54.9c0 7.07-6.04 12.8-13.5 12.8-7.45 0-13.49-5.73-13.49-12.8 0-7.06 6.04-12.78 13.5-12.78 7.45 0 13.5 5.72 13.5 12.79m-46.43 14.68a12.78 12.78 0 1 1-25.56 0 12.78 12.78 0 0 1 25.56 0m16.14-23.62c-1.13 6.1-7.25 10.42-14.06 9.85-7.16-.59-12.84-6.35-12.3-13.16.56-7.19 7.7-12.16 15.49-10.8 7.35 1.27 12.03 7.7 10.86 14.1M505.54 66.7c-4.56 5.11-11.88 6.02-16.35 2.03-4.48-3.99-4.4-11.37.17-16.48 4.55-5.11 11.88-6.02 16.35-2.03 4.47 3.99 4.4 11.37-.17 16.48m-38.14 46.5c-4.56 5.1-11.88 6.01-16.35 2.03-4.47-4-4.4-11.37.16-16.49 4.57-5.1 11.9-6.02 16.36-2.03 4.47 4 4.4 11.37-.16 16.48m-24.74 22.48c-.3 7.3-5.38 13.03-11.37 12.8-5.99-.25-10.6-6.36-10.32-13.66.3-7.3 5.39-13.04 11.38-12.8 5.98.24 10.6 6.36 10.3 13.66"
          fill="#c3c9c2" />
    <path d="M422.29 162.7c-.3 7.31-4.13 13.09-8.56 12.9-4.44-.17-7.8-6.23-7.51-13.53.3-7.3 4.12-13.09 8.56-12.91 4.43.18 7.8 6.24 7.5 13.55m12.32 33.79c1.06 7.73-2.3 14.57-7.49 15.28-5.18.7-10.24-4.99-11.3-12.71-1.05-7.73 2.3-14.56 7.5-15.27 5.19-.7 10.24 4.98 11.3 12.7m9.68 38.28c1 7.42-2.38 14-7.57 14.72-5.2.7-10.22-4.74-11.23-12.16-1.01-7.42 2.38-14.01 7.57-14.72 5.19-.7 10.21 4.74 11.23 12.16"
          fill="#929292" />
    <path d="M493 296.8c5.66 4.91 7.46 12.1 4.04 16.05-3.43 3.96-10.8 3.19-16.46-1.72-5.66-4.9-7.47-12.09-4.04-16.04 3.43-3.96 10.8-3.2 16.46 1.71"
          fill="#8c928e" />
    <path d="M401.7 222.8c1.06 7.74-.5 14.32-3.46 14.73-2.97.4-6.23-5.53-7.28-13.26-1.05-7.72.5-14.31 3.47-14.72 2.97-.4 6.23 5.54 7.28 13.26m14.04 34.39c3.33 6.34 3.88 12.61 1.22 14-2.65 1.4-7.5-2.63-10.83-8.97-3.32-6.35-3.87-12.62-1.21-14.01 2.65-1.4 7.5 2.62 10.82 8.97m21.6 9.64c2.96 6.53 2.92 12.92-.1 14.3-3 1.36-7.85-2.83-10.81-9.35-2.96-6.53-2.92-12.92.1-14.3 3-1.36 7.85 2.82 10.81 9.35m19.87 29.01c5.07 5.07 7.41 10.94 5.24 13.1-2.17 2.18-8.05-.16-13.11-5.23-5.07-5.07-7.41-10.94-5.24-13.1 2.17-2.18 8.04.16 13.1 5.23m24.59 24.94c5.07 5.07 7.17 11.17 4.7 13.64-2.46 2.47-8.56.36-13.63-4.7-5.07-5.08-7.18-11.18-4.71-13.65 2.46-2.46 8.57-.36 13.64 4.71m-27.84-6.02c5.07 5.07 7.42 10.94 5.24 13.11-2.17 2.18-8.04-.17-13.1-5.24-5.07-5.06-7.42-10.93-5.24-13.1 2.17-2.18 8.04.17 13.1 5.23m-24.53-7.07c4.33 4.33 7.1 8.57 6.2 9.48-.92.9-5.16-1.86-9.49-6.19s-7.1-8.58-6.2-9.48c.92-.91 5.16 1.86 9.49 6.19"
          fill="#6c6c6c" />
    <path d="M432.59 290.71c4.3 6.11 6.21 12.16 4.28 13.52-1.93 1.36-6.98-2.5-11.27-8.6-4.3-6.1-6.2-12.15-4.28-13.5 1.93-1.37 6.98 2.48 11.27 8.58"
          fill="#5c992d" />
    <path d="M396.38 250c1.73 6.05 2.03 11.26.67 11.64-1.35.4-3.84-4.2-5.57-10.23-1.72-6.04-2.02-11.25-.67-11.64 1.35-.38 3.85 4.2 5.57 10.24m-9.6-35.08c.36 6.28-.48 11.43-1.88 11.5-1.4.09-2.84-4.93-3.2-11.2-.37-6.27.47-11.42 1.88-11.5 1.4-.08 2.83 4.93 3.2 11.2"
          fill="#6c6c6c" />
    <path d="M424.37 91.74c-3.33 6.5-8.47 10.53-11.47 9-3-1.54-2.73-8.06.6-14.56 3.34-6.5 8.47-10.54 11.47-9 3 1.53 2.73 8.05-.6 14.56m27.39-20.22c-4.87 4.87-10.8 6.82-13.26 4.36-2.46-2.46-.5-8.4 4.36-13.26 4.86-4.87 10.8-6.82 13.26-4.36 2.45 2.46.5 8.4-4.36 13.26"
          fill="#929292" />
    <path d="M438.8 60.75c-4.38 4.37-8.92 6.92-10.15 5.7-1.23-1.24 1.32-5.78 5.7-10.15 4.37-4.38 8.92-6.93 10.15-5.7 1.22 1.23-1.33 5.77-5.7 10.15m25.87-18.48c-4.74 3.98-9.5 6.12-10.61 4.78-1.12-1.33 1.82-5.63 6.56-9.6 4.75-3.97 9.5-6.11 10.61-4.79 1.12 1.34-1.82 5.64-6.56 9.61m31.97-13.83c-6 3.75-11.82 5.27-13 3.39-1.16-1.88 2.75-6.44 8.75-10.19 6-3.75 11.8-5.27 12.98-3.4 1.18 1.88-2.73 6.45-8.73 10.2"
          fill="#6c6c6c" />
    <path d="M527.68 21.41c-6.9 1.59-12.89 1.13-13.38-1.03-.5-2.16 4.68-5.2 11.58-6.78 6.9-1.59 12.89-1.13 13.38 1.03.5 2.16-4.69 5.2-11.58 6.78"
          fill="#5c992d" />
    <path d="M514.73 12.82c-4.62 1.06-8.6.9-8.89-.36-.29-1.25 3.22-3.14 7.84-4.2 4.61-1.06 8.59-.9 8.88.35.3 1.26-3.22 3.14-7.83 4.2m61.47-8.89c-4.73.24-8.6-.44-8.66-1.5-.06-1.08 3.74-2.14 8.47-2.38 4.73-.24 8.6.44 8.66 1.5.06 1.08-3.73 2.14-8.47 2.38m62.83 12.46c-3.58-1.72-6.18-3.76-5.8-4.57.4-.81 3.61-.08 7.2 1.63 3.59 1.7 6.19 3.75 5.8 4.56-.39.81-3.6.09-7.2-1.63m29.27 19.89c-4.53-3.72-7.75-7.3-7.18-8 .58-.7 4.7 1.76 9.24 5.49 4.53 3.72 7.75 7.3 7.18 8-.58.69-4.71-1.77-9.24-5.5m16.97 8.83c-3.32-2.73-5.54-5.5-4.97-6.2.57-.69 3.72.96 7.03 3.68 3.32 2.73 5.54 5.5 4.97 6.2-.57.69-3.72-.96-7.03-3.68M582.44 15.76c-7.06.35-12.9-1.38-13.02-3.89-.13-2.5 5.5-4.82 12.56-5.18 7.07-.36 12.9 1.38 13.02 3.88.13 2.5-5.5 4.83-12.56 5.19m28.23-3.17c-6.1-1.05-10.78-3.54-10.43-5.57.35-2.03 5.58-2.82 11.68-1.78 6.11 1.04 10.78 3.53 10.44 5.56-.35 2.03-5.58 2.83-11.69 1.79m28.23 16.05c-5.99-1.62-10.4-4.54-9.86-6.53.53-1.99 5.82-2.29 11.8-.67s10.4 4.54 9.86 6.52c-.54 2-5.83 2.3-11.8.68"
          fill="#6c6c6c" />
    <path d="M553.64 28.86c-6.28.32-11.55-2.97-11.78-7.33-.22-4.37 4.7-8.17 10.98-8.49 6.29-.32 11.56 2.97 11.78 7.34.23 4.36-4.69 8.16-10.98 8.48"
          fill="#929292" />
    <path d="M482.62 52.18c-4.87 4.86-11.13 6.49-14 3.63-2.85-2.86-1.22-9.12 3.65-13.99 4.86-4.86 11.12-6.5 13.98-3.63 2.86 2.86 1.23 9.12-3.63 13.99"
          fill="#fff" />
    <path d="M482.62 52.18c-4.87 4.86-11.13 6.49-14 3.63-2.85-2.86-1.22-9.12 3.65-13.99 4.86-4.86 11.12-6.5 13.98-3.63 2.86 2.86 1.23 9.12-3.63 13.99"
          fill="#c3c9c2" />
    <path d="M390.48 185.5c-.3 7.3-2.8 13.14-5.58 13.03-2.8-.12-4.83-6.12-4.53-13.43.29-7.3 2.79-13.13 5.58-13.02 2.8.1 4.82 6.12 4.53 13.42m11.77-31c-.27 6.73-2.75 12.1-5.54 11.98-2.8-.1-4.84-5.66-4.57-12.39.27-6.73 2.75-12.1 5.54-11.99 2.8.11 4.84 5.66 4.57 12.4"
          fill="#6c6c6c" />
    <path d="M519.27 43.5c-4.75 3.67-11.2 3.27-14.4-.88-3.2-4.14-1.94-10.48 2.8-14.14s11.19-3.26 14.39.89c3.2 4.15 1.95 10.48-2.8 14.14"
          fill="#929292" />
</svg>
