<?xml version="1.0" encoding="UTF-8"?>
<svg xmlns="http://www.w3.org/2000/svg" version="1.1" viewBox="0 0 1010 595.28">
  <defs>
    <style>
        .cls-1 {
            fill: #267443;
        }

        .cls-2 {
            stroke: #ffffff;
            stroke-width: 20px;
        }

        .cls-2, .cls-3 {
            fill: none;
            stroke-miterlimit: 10;
        }

        .cls-3 {
            stroke: #267443;
            stroke-width: 16px;
        }

        rect {
            fill: #ffffff;
        }

        path {
            fill: #ffffff;
        }
    </style>
  </defs>
  <!-- Generator: Adobe Illustrator 28.6.0, SVG Export Plug-In . SVG Version: 1.2.0 Build 709)  -->
  <g>
    <g id="Layer_1">
      <g id="_x33_66_x2C__Cog_x2C__Setting_x2C__Gear">
        <path
          d="M851.05,160.71v10.13c0,4.18-3.11,7.45-7.48,8.05l-11.53,1.19c-3.12.3-5.92,2.38-7.16,5.37-.62,2.09-1.56,4.18-2.49,5.96-1.56,2.68-.93,6.26.94,8.65l7.48,8.64c2.8,3.28,2.49,7.75-.62,10.73l-7.48,7.15c-3.12,2.98-7.79,3.28-11.22.6l-9.04-7.16c-2.49-2.08-5.92-2.38-9.04-.89-2.18.89-4.05,1.79-6.23,2.38-3.11.9-5.3,3.58-5.61,6.86l-1.25,11.03c-.31,4.18-4.05,7.16-8.41,7.16h-10.59c-4.36,0-7.79-2.98-8.41-7.16l-1.24-11.03c-.31-2.98-2.49-5.67-5.61-6.86-2.18-.59-4.36-1.49-6.23-2.38-2.8-1.49-6.54-.89-9.04.89l-9.04,7.16c-3.43,2.68-8.1,2.38-11.22-.6l-7.48-7.15c-3.11-2.98-3.43-7.45-.62-10.73l7.16-8.64c2.18-2.39,2.49-5.67.94-8.65-.94-2.09-1.87-3.88-2.49-5.96-.93-2.98-3.74-5.07-7.16-5.37l-11.53-1.19c-4.36-.3-7.48-3.88-7.48-8.05v-10.13c0-4.18,3.11-7.45,7.48-8.05l11.53-1.19c3.12-.3,5.92-2.38,7.16-5.37.62-2.09,1.56-4.17,2.49-5.96,1.56-2.68.93-6.26-.94-8.64l-7.16-8.65c-2.8-3.28-2.49-7.75.62-10.73l7.48-7.16c3.11-2.98,7.79-3.28,11.22-.6l9.04,6.86c2.49,2.09,5.92,2.39,9.04.9,2.18-.9,4.05-1.79,6.23-2.39,3.11-.89,5.3-3.58,5.61-6.86l1.24-11.03c.31-4.17,4.05-7.15,8.41-7.15h10.59c4.36,0,7.79,2.98,8.41,7.15l1.25,11.03c.31,2.98,2.49,5.67,5.61,6.86,2.18.6,4.36,1.49,6.23,2.39,2.8,1.49,6.54.89,9.04-.9l9.04-6.86c3.43-2.68,8.1-2.38,11.22.6l7.48,7.16c3.12,2.98,3.43,7.45.62,10.73l-7.48,8.65c-2.18,2.38-2.49,5.66-.94,8.64.94,2.09,1.87,3.88,2.49,5.96.93,2.98,3.74,5.07,7.16,5.37l11.53,1.19c4.36.3,7.48,3.88,7.48,8.05ZM802.45,165.78c0-18.78-16.2-34.28-35.83-34.28s-35.83,15.5-35.83,34.28,16.2,34.28,35.83,34.28c19.63-.3,35.83-15.5,35.83-34.28Z" />
      </g>
      <g id="_x33_66_x2C__Cog_x2C__Setting_x2C__Gear-2" data-name="_x33_66_x2C__Cog_x2C__Setting_x2C__Gear">
        <path
          d="M828.37,300.79v8.51c0,3.5-2.61,6.26-6.28,6.76l-9.68,1c-2.61.25-4.97,2-6.01,4.5-.52,1.75-1.31,3.5-2.09,5-1.31,2.25-.78,5.25.79,7.26l6.28,7.26c2.35,2.75,2.09,6.51-.52,9.01l-6.28,6c-2.61,2.5-6.54,2.75-9.41.5l-7.58-6.01c-2.09-1.75-4.97-2-7.58-.75-1.83.75-3.4,1.5-5.23,2-2.61.75-4.45,3-4.71,5.76l-1.05,9.26c-.26,3.5-3.4,6.01-7.06,6.01h-8.89c-3.66,0-6.54-2.5-7.06-6.01l-1.04-9.26c-.26-2.5-2.09-4.76-4.71-5.76-1.83-.5-3.66-1.25-5.23-2-2.35-1.25-5.49-.75-7.58.75l-7.58,6.01c-2.88,2.25-6.8,2-9.41-.5l-6.28-6c-2.61-2.5-2.88-6.26-.52-9.01l6.01-7.26c1.83-2,2.09-4.76.79-7.26-.79-1.75-1.57-3.25-2.09-5-.78-2.5-3.14-4.25-6.01-4.5l-9.68-1c-3.66-.25-6.28-3.25-6.28-6.76v-8.51c0-3.5,2.61-6.26,6.28-6.76l9.68-1c2.61-.25,4.97-2,6.01-4.5.52-1.75,1.31-3.5,2.09-5,1.31-2.25.78-5.25-.79-7.26l-6.01-7.26c-2.35-2.75-2.09-6.51.52-9.01l6.28-6.01c2.61-2.5,6.54-2.75,9.41-.5l7.58,5.76c2.09,1.75,4.97,2,7.58.75,1.83-.75,3.4-1.5,5.23-2,2.61-.75,4.45-3,4.71-5.76l1.04-9.26c.26-3.5,3.4-6,7.06-6h8.89c3.66,0,6.54,2.5,7.06,6l1.05,9.26c.26,2.5,2.09,4.76,4.71,5.76,1.83.5,3.66,1.25,5.23,2,2.35,1.25,5.49.75,7.58-.75l7.58-5.76c2.88-2.25,6.8-2,9.41.5l6.28,6.01c2.61,2.5,2.88,6.26.52,9.01l-6.28,7.26c-1.83,2-2.09,4.75-.79,7.26.79,1.75,1.57,3.25,2.09,5,.78,2.5,3.14,4.25,6.01,4.5l9.68,1c3.66.25,6.28,3.25,6.28,6.76ZM787.58,305.04c0-15.77-13.6-28.78-30.08-28.78s-30.08,13.01-30.08,28.78,13.6,28.78,30.08,28.78c16.48-.25,30.08-13.01,30.08-28.78Z" />
      </g>
      <g id="_x33_66_x2C__Cog_x2C__Setting_x2C__Gear-3" data-name="_x33_66_x2C__Cog_x2C__Setting_x2C__Gear">
        <path
          d="M958.95,394.11v12.86c0,5.3-3.82,9.46-9.17,10.22l-14.14,1.51c-3.82.38-7.26,3.03-8.79,6.81-.76,2.65-1.91,5.3-3.06,7.57-1.91,3.41-1.15,7.94,1.15,10.97l9.17,10.97c3.44,4.16,3.06,9.84-.77,13.62l-9.17,9.08c-3.82,3.78-9.55,4.16-13.76.76l-11.08-9.08c-3.06-2.65-7.26-3.03-11.08-1.13-2.67,1.13-4.97,2.27-7.64,3.03-3.82,1.14-6.5,4.54-6.88,8.7l-1.53,14c-.38,5.3-4.97,9.08-10.32,9.08h-12.99c-5.35,0-9.55-3.78-10.32-9.08l-1.53-14c-.38-3.78-3.06-7.19-6.88-8.7-2.68-.75-5.35-1.89-7.64-3.03-3.44-1.89-8.02-1.13-11.08,1.13l-11.08,9.08c-4.2,3.41-9.94,3.03-13.76-.76l-9.17-9.08c-3.82-3.78-4.2-9.46-.76-13.62l8.79-10.97c2.67-3.03,3.06-7.19,1.15-10.97-1.15-2.65-2.29-4.92-3.06-7.57-1.15-3.78-4.59-6.43-8.79-6.81l-14.14-1.51c-5.35-.38-9.17-4.92-9.17-10.22v-12.86c0-5.3,3.82-9.46,9.17-10.22l14.14-1.51c3.82-.38,7.26-3.03,8.79-6.81.76-2.65,1.91-5.29,3.06-7.57,1.91-3.4,1.15-7.94-1.15-10.97l-8.79-10.97c-3.44-4.16-3.06-9.84.76-13.62l9.17-9.08c3.82-3.78,9.55-4.16,13.76-.76l11.08,8.7c3.06,2.65,7.26,3.03,11.08,1.14,2.68-1.14,4.97-2.27,7.64-3.03,3.82-1.13,6.5-4.54,6.88-8.7l1.53-14c.38-5.29,4.97-9.08,10.32-9.08h12.99c5.35,0,9.55,3.78,10.32,9.08l1.53,14c.38,3.78,3.06,7.19,6.88,8.7,2.67.76,5.35,1.89,7.64,3.03,3.44,1.89,8.02,1.13,11.08-1.14l11.08-8.7c4.2-3.4,9.94-3.03,13.76.76l9.17,9.08c3.82,3.78,4.2,9.46.77,13.62l-9.17,10.97c-2.67,3.03-3.06,7.19-1.15,10.97,1.15,2.65,2.29,4.92,3.06,7.57,1.15,3.78,4.59,6.43,8.79,6.81l14.14,1.51c5.35.38,9.17,4.92,9.17,10.22ZM899.35,400.55c0-23.84-19.87-43.51-43.94-43.51s-43.94,19.67-43.94,43.51,19.87,43.51,43.94,43.51c24.07-.38,43.94-19.67,43.94-43.51Z" />
      </g>
      <circle class="cls-3" cx="453.25" cy="128.65" r="36.13" />
      <circle class="cls-3" cx="478.72" cy="255.78" r="36.13" />
      <circle class="cls-3" cx="678.4" cy="332.82" r="24.23" />
      <circle class="cls-2" cx="146.12" cy="121.06" r="24.23" />
      <circle class="cls-2" cx="80.87" cy="293.91" r="24.23" />
      <circle class="cls-2" cx="137.3" cy="389.2" r="24.23" />
      <circle class="cls-2" cx="270.61" cy="433.3" r="24.23" />
      <circle class="cls-3" cx="647.69" cy="212.25" r="47.48" />
      <circle class="cls-3" cx="517.85" cy="413.42" r="61.54" />
      <rect x="176.34" y="110.55" width="83.29" height="20.86" />
      <rect x="113.08" y="283.48" width="83.29" height="20.86" />
      <rect x="192.12" y="324.23" width="51.81" height="20.86" />
      <rect x="152.28" y="340.1" width="54.49" height="20.86" transform="translate(-191.86 219.48) rotate(-43.44)" />
      <rect x="320.34" y="406.74" width="59.24" height="18.72" transform="translate(-190.26 354.65) rotate(-43.44)" />
      <rect x="276.06" y="111.99" width="32.56" height="17.83" />
      <rect x="302.22" y="425.49" width="32.56" height="17.83" />
      <rect x="364.95" y="388.94" width="25.18" height="18.9" />
      <rect x="403.87" y="388.94" width="31.94" height="17.88" />
      <rect x="321.62" y="111.99" width="32.56" height="17.83" />
      <rect x="364.19" y="111.99" width="32.56" height="17.83" />
      <rect class="cls-1" x="352.83" y="186.88" width="87.84" height="15.1"
            transform="translate(-.93 386.96) rotate(-51.94)" />
      <rect class="cls-1" x="383.18" y="261.08" width="58.93" height="15.1"
            transform="translate(-74.19 194.94) rotate(-24.46)" />
      <rect class="cls-1" x="365.15" y="341.32" width="113.3" height="15.1"
            transform="translate(146.19 -124.06) rotate(20.17)" />
      <rect class="cls-1" x="482.78" y="145.32" width="134.07" height="15.1"
            transform="translate(102.41 -201.38) rotate(22.83)" />
      <rect class="cls-1" x="437.1" y="185.06" width="59.2" height="15.1"
            transform="translate(448.81 -311.95) rotate(65.54)" />
      <rect class="cls-1" x="477.44" y="311.16" width="67.63" height="15.1"
            transform="translate(722.77 -245.4) rotate(78.61)" />
      <rect class="cls-1" x="506.43" y="289.32" width="158.36" height="15.1"
            transform="translate(213.82 -244.28) rotate(28.63)" />
      <rect class="cls-1" x="506.75" y="215.14" width="90.66" height="15.1"
            transform="translate(-29.25 94.46) rotate(-9.53)" />
      <rect class="cls-1" x="520.52" y="300.84" width="133.55" height="15.1"
            transform="translate(75.16 729.98) rotate(-67.17)" />
      <circle class="cls-3" cx="319.72" cy="280.81" r="66.09" />
      <rect x="217.99" y="284.99" width="32.56" height="17.83" />
    </g>
  </g>
</svg>
