<svg width="100%" height="100%" viewBox="0 0 32 32" fill="none" xmlns="http://www.w3.org/2000/svg">
<path d="M0 8C0 3.58172 3.58172 0 8 0H24C28.4183 0 32 3.58172 32 8V24C32 28.4183 28.4183 32 24 32H8C3.58172 32 0 28.4183 0 24V8Z" fill="#18181B"/>
<g clip-path="url(#clip0_57_6910)">
<path d="M15.9999 21.3333C17.4144 21.3333 18.771 20.7714 19.7712 19.7712C20.7713 18.7711 21.3333 17.4145 21.3333 16C21.3333 14.5855 20.7713 13.229 19.7712 12.2288C18.771 11.2286 17.4144 10.6667 15.9999 10.6667M15.9999 21.3333C14.5854 21.3333 13.2289 20.7714 12.2287 19.7712C11.2285 18.7711 10.6666 17.4145 10.6666 16M15.9999 21.3333V22.6667M15.9999 10.6667C14.5854 10.6667 13.2289 11.2286 12.2287 12.2288C11.2285 13.229 10.6666 14.5855 10.6666 16M15.9999 10.6667V9.33334M10.6666 16H9.33325M17.3333 16C17.3333 16.3536 17.1928 16.6928 16.9427 16.9428C16.6927 17.1929 16.3535 17.3333 15.9999 17.3333C15.6463 17.3333 15.3072 17.1929 15.0571 16.9428C14.8071 16.6928 14.6666 16.3536 14.6666 16C14.6666 15.6464 14.8071 15.3073 15.0571 15.0572C15.3072 14.8072 15.6463 14.6667 15.9999 14.6667C16.3535 14.6667 16.6927 14.8072 16.9427 15.0572C17.1928 15.3073 17.3333 15.6464 17.3333 16ZM17.3333 16H22.6666M19.3333 21.7733L18.6666 20.62M15.3333 14.8467L12.6666 10.2267M21.7734 19.3333L20.62 18.6667M10.2265 12.6667L11.3798 13.3333M21.7734 12.6667L20.62 13.3333M10.2265 19.3333L11.3798 18.6667M19.3333 10.2267L18.6666 11.3801M15.3333 17.1533L12.6666 21.7733" stroke="#FAFAFA" stroke-width="1.5" stroke-linecap="round" stroke-linejoin="round"/>
</g>
<defs>
<clipPath id="clip0_57_6910">
<rect width="16" height="16" fill="white" transform="translate(8 8)"/>
</clipPath>
</defs>
</svg>
