<svg width="22" height="22" viewBox="0 0 22 22" fill="none" xmlns="http://www.w3.org/2000/svg">
<g clip-path="url(#clip0_995_119)">
<path d="M11 0.988281C10.841 0.988281 10.682 0.992578 10.523 0.999883L10.5574 1.77246C10.7035 1.76559 10.8496 1.76172 11 1.76172C16.1047 1.76172 20.2383 5.89531 20.2383 11C20.2383 16.1047 16.1047 20.2383 11 20.2383C7.15 20.2383 3.85215 17.8879 2.46426 14.5406L3.65148 14.184L1.57051 12.7102L0.751953 15.052L1.7209 14.7641C3.20891 18.425 6.80625 21.0117 11 21.0117C16.5258 21.0117 21.0117 16.5258 21.0117 11C21.0117 5.47422 16.5258 0.988281 11 0.988281ZM9.67656 1.07594C9.10508 1.15113 8.55508 1.27359 8.01797 1.44031L8.25859 2.17465C8.74844 2.02254 9.25977 1.91039 9.77969 1.84164L9.67656 1.07594ZM7.22734 1.72562C6.69453 1.94262 6.1875 2.20344 5.70625 2.50422L6.11445 3.15777C6.55703 2.88105 7.02539 2.64086 7.51523 2.44148L7.22734 1.72562ZM5.00156 2.98633C4.55046 3.32443 4.1286 3.69986 3.74043 4.10867L4.30117 4.63633C4.65781 4.25949 5.04883 3.91402 5.46133 3.6025L5.25508 3.3202L5.00156 2.98633ZM7.98789 3.355L7.79883 4.10437L17.123 6.48828L17.3121 5.74063L7.98789 3.355ZM3.1827 4.74805C2.83078 5.18633 2.51496 5.65898 2.23996 6.15312L2.91242 6.53125C3.16637 6.07148 3.4577 5.6375 3.78297 5.2293L3.1827 4.74805ZM8.6668 5.12617C8.49922 6.24336 8.78711 7.49805 9.27695 8.5293C9.55195 9.10508 9.88711 9.61211 10.218 9.98164C10.3984 10.1836 10.5789 10.3383 10.7422 10.45L10.5102 11.3609C10.3125 11.3781 10.0805 11.4297 9.82266 11.5199C9.3543 11.6832 8.81719 11.9668 8.30156 12.3406C7.37344 13.0109 6.52266 13.9691 6.13594 15.0305L13.3332 16.8738C13.5008 15.7566 13.2129 14.502 12.723 13.4707C12.448 12.8949 12.1129 12.3879 11.782 12.0184C11.6016 11.8164 11.4211 11.6617 11.2578 11.55L11.4898 10.6391C11.6832 10.6176 11.9195 10.5703 12.1773 10.4801C12.6457 10.3168 13.1828 10.0332 13.6984 9.65938C14.6266 8.98906 15.4773 8.03086 15.8641 6.96953L8.6668 5.12617ZM1.85797 6.91367C1.62895 7.4293 1.44117 7.96211 1.29937 8.51641L2.05047 8.69687C2.18066 8.18984 2.35297 7.7 2.56395 7.22734L1.85797 6.91367ZM1.12578 9.3457C1.03598 9.88281 0.988281 10.4371 0.988281 11V11.0387L1.76172 11.0301V11C1.76172 10.4801 1.80555 9.96875 1.88848 9.47031L1.12578 9.3457ZM4.87695 15.5117L4.68789 16.2594L14.0121 18.6441L14.2012 17.8965L4.87695 15.5117Z" fill="black"/>
</g>
<defs>
<clipPath id="clip0_995_119">
<rect width="22" height="22" fill="white"/>
</clipPath>
</defs>
</svg>
