<svg width="39" height="42" viewBox="0 0 39 42" xmlns="http://www.w3.org/2000/svg">
<g>
<path fill="#fff" d="M10.0187 26.3625C11.3292 25.3604 12.7937 24.5703 14.4125 23.9922C16.0312 23.414 17.7271 23.125 19.5 23.125C21.2729 23.125 22.9687 23.414 24.5875 23.9922C26.2062 24.5703 27.6708 25.3604 28.9812 26.3625C29.8806 25.309 30.5807 24.1142 31.0818 22.7781C31.5828 21.442 31.8333 20.016 31.8333 18.5C31.8333 15.0826 30.6321 12.1727 28.2297 9.77029C25.8273 7.36786 22.9174 6.16665 19.5 6.16665C16.0826 6.16665 13.1727 7.36786 10.7703 9.77029C8.36788 12.1727 7.16666 15.0826 7.16666 18.5C7.16666 20.016 7.41718 21.442 7.91822 22.7781C8.41927 24.1142 9.11944 25.309 10.0187 26.3625ZM19.5 20.0416C17.984 20.0416 16.7057 19.5213 15.6651 18.4807C14.6245 17.4401 14.1042 16.1618 14.1042 14.6458C14.1042 13.1298 14.6245 11.8515 15.6651 10.8109C16.7057 9.77029 17.984 9.24998 19.5 9.24998C21.016 9.24998 22.2943 9.77029 23.3349 10.8109C24.3755 11.8515 24.8958 13.1298 24.8958 14.6458C24.8958 16.1618 24.3755 17.4401 23.3349 18.4807C22.2943 19.5213 21.016 20.0416 19.5 20.0416ZM19.5 33.9166C17.3674 33.9166 15.3632 33.512 13.4875 32.7026C11.6118 31.8932 9.9802 30.7948 8.5927 29.4073C7.2052 28.0198 6.10677 26.3882 5.29739 24.5125C4.48802 22.6368 4.08333 20.6326 4.08333 18.5C4.08333 16.3673 4.48802 14.3632 5.29739 12.4875C6.10677 10.6118 7.2052 8.98019 8.5927 7.59269C9.9802 6.20519 11.6118 5.10675 13.4875 4.29738C15.3632 3.488 17.3674 3.08331 19.5 3.08331C21.6326 3.08331 23.6368 3.488 25.5125 4.29738C27.3882 5.10675 29.0198 6.20519 30.4073 7.59269C31.7948 8.98019 32.8932 10.6118 33.7026 12.4875C34.512 14.3632 34.9167 16.3673 34.9167 18.5C34.9167 20.6326 34.512 22.6368 33.7026 24.5125C32.8932 26.3882 31.7948 28.0198 30.4073 29.4073C29.0198 30.7948 27.3882 31.8932 25.5125 32.7026C23.6368 33.512 21.6326 33.9166 19.5 33.9166Z"/>
</g>
</svg>
